<?xml version="1.0" encoding="utf-8"?>
<!-- Generator: Adobe Illustrator 16.0.0, SVG Export Plug-In . SVG Version: 6.00 Build 0)  -->
<!DOCTYPE svg PUBLIC "-//W3C//DTD SVG 1.1//EN" "http://www.w3.org/Graphics/SVG/1.1/DTD/svg11.dtd">
<svg version="1.1" id="Warstwa_1" xmlns="http://www.w3.org/2000/svg" xmlns:xlink="http://www.w3.org/1999/xlink" x="0px" y="0px"
	 width="1200px" height="378.947px" viewBox="0 0 1200 378.947" enable-background="new 0 0 1200 378.947" xml:space="preserve">
<path opacity="0.7" d="M0,0h1200v378.947H0V0z"/>
<linearGradient id="SVGID_1_" gradientUnits="userSpaceOnUse" x1="-226.0439" y1="851.6494" x2="838.0442" y2="237.2979" gradientTransform="matrix(1 0 0 -1 294 733.9473)">
	<stop  offset="0.2903" style="stop-color:#9C0B5C"/>
	<stop  offset="1" style="stop-color:#FF3B0E"/>
</linearGradient>
<path fill="url(#SVGID_1_)" d="M0,0h1200v378.947H0V0z"/>
<g>
	<g>
		<path fill="#3F3D56" d="M442.588,192.014h-12.866c-1.167-0.002-2.113-0.948-2.114-2.115v-18.494c0-1.167,0.947-2.113,2.114-2.115
			h12.866c1.167,0.002,2.113,0.948,2.115,2.115v18.494C444.701,191.065,443.755,192.012,442.588,192.014z M429.722,170.303
			c-0.607,0.001-1.1,0.494-1.101,1.102v18.494c0,0.609,0.493,1.1,1.101,1.1h12.866c0.608,0,1.101-0.491,1.102-1.1v-18.494
			c-0.001-0.608-0.494-1.101-1.102-1.102H429.722z"/>
		<path fill="#3F3D56" d="M466.086,192.014h-11.618c-1.512-0.002-2.736-1.227-2.738-2.738v-37.349
			c0.002-1.512,1.227-2.736,2.738-2.739h11.618c1.511,0.003,2.737,1.227,2.739,2.739v37.349
			C468.823,190.787,467.598,192.012,466.086,192.014z M454.468,150.202c-0.953,0.001-1.724,0.772-1.725,1.725v37.349
			c0.001,0.952,0.772,1.724,1.725,1.724h11.618c0.952,0,1.725-0.771,1.725-1.724v-37.349c0-0.953-0.773-1.724-1.725-1.725H454.468z"
			/>
		<path fill="#3F3D56" d="M489.761,192.014H479.04c-1.76-0.002-3.185-1.429-3.187-3.186v-54.946
			c0.002-1.759,1.427-3.186,3.187-3.187h10.721c1.759,0.001,3.185,1.428,3.187,3.187v54.946
			C492.946,190.585,491.52,192.012,489.761,192.014z M479.04,131.708c-1.2,0.001-2.172,0.974-2.174,2.173v54.946
			c0.001,1.2,0.974,2.171,2.174,2.171h10.721c1.199,0,2.171-0.972,2.174-2.171v-54.946c-0.002-1.2-0.975-2.172-2.174-2.173H479.04z"
			/>
		<rect x="431.33" y="172.812" fill="#FFFFFF" width="9.65" height="15.681"/>
		<rect x="455.454" y="152.911" fill="#FFFFFF" width="9.648" height="35.581"/>
		<rect x="479.576" y="134.417" fill="#FFFFFF" width="9.649" height="54.075"/>
		<path fill="#3F3D56" d="M499.806,199.109h-80.07c-0.279,0-0.507-0.228-0.507-0.507l0,0v-79.564c0-0.279,0.228-0.507,0.507-0.507
			c0.28,0,0.507,0.228,0.507,0.507v79.057h79.563c0.28,0,0.507,0.228,0.507,0.508C500.313,198.882,500.086,199.109,499.806,199.109z
			"/>
	</g>
	<g>
		<path fill="#3F3D56" d="M835.05,149.178h-86.21c-0.357,0-0.648-0.29-0.648-0.647l0,0V61.024c0-0.358,0.289-0.649,0.648-0.649
			c0.357,0,0.648,0.291,0.648,0.649v86.858h85.562c0.358,0,0.647,0.291,0.647,0.649C835.697,148.888,835.408,149.178,835.05,149.178
			z"/>
		<path fill="#3F3D56" d="M778.592,141.054h-16.456c-1.493-0.001-2.703-1.211-2.706-2.704v-23.656
			c0.003-1.493,1.213-2.703,2.706-2.705h16.456c1.493,0.002,2.702,1.212,2.705,2.705v23.656
			C781.294,139.843,780.085,141.053,778.592,141.054z M762.136,113.286c-0.777,0.001-1.409,0.632-1.409,1.409v23.656
			c0,0.777,0.632,1.408,1.409,1.409h16.456c0.777-0.001,1.407-0.632,1.409-1.409v-23.656c-0.002-0.777-0.632-1.407-1.409-1.409
			H762.136z"/>
		<path fill="#3F3D56" d="M812.29,141.054h-15.146c-1.855-0.001-3.358-1.505-3.36-3.36V94.849c0.002-1.855,1.505-3.358,3.36-3.36
			h15.146c1.856,0.001,3.358,1.505,3.36,3.36v42.845C815.648,139.549,814.146,141.053,812.29,141.054z M797.145,92.785
			c-1.14,0-2.063,0.925-2.064,2.064v42.845c0.002,1.14,0.925,2.063,2.064,2.065h15.146c1.141-0.001,2.063-0.925,2.063-2.065V94.849
			c-0.001-1.139-0.923-2.063-2.063-2.064H797.145z"/>
		<rect x="763.896" y="116.719" fill="#FFFFFF" width="12.341" height="20.055"/>
		<rect x="798.547" y="96.87" fill="#FFFFFF" width="12.342" height="38.804"/>
		<circle fill="#FFFFFF" cx="770.23" cy="99.267" r="5.834"/>
		<circle fill="#FFFFFF" cx="804.585" cy="77.229" r="5.834"/>
	</g>
	<g>
		<path fill="#FFB8B8" d="M672.041,179.132c0,0,24.507,1.268,18.799,8.982c-5.709,7.713-20.707-4.526-20.707-4.526L672.041,179.132z
			"/>
		<path fill="#1D91D8" d="M626.88,105.652l4.988,1.247c0,0,2.91,8.729,4.987,16.627c2.079,7.898,6.234,31.592,6.234,31.592
			l32.229,22.584l-3.844,8.598l-42.933-16.919l-9.56-37.542L626.88,105.652z"/>
		<polygon opacity="0.2" enable-background="new    " points="631.573,121.147 629.715,160.079 633.593,171.654 622.229,163.321 		
			"/>
		<path fill="#2F2E41" d="M638.311,190.242c0,0,5.405,14.55,6.235,24.526c0.832,9.977,1.663,17.873,1.663,17.873h-25.356
			l-4.988-7.481v7.481h-29.513c0,0-8.314-27.02-4.988-30.343c3.326-3.327,34.918-17.459,34.918-17.459L638.311,190.242z"/>
		<rect x="539.902" y="232.264" fill="#3F3D56" width="146.725" height="0.505"/>
		<circle fill="#FFB8B8" cx="606.512" cy="74.061" r="15.796"/>
		<path fill="#FFB8B8" d="M594.457,80.712l-1.247,18.29l15.796,21.2l7.897-19.953c0,0-7.066-4.572-2.91-14.133L594.457,80.712z"/>
		<path fill="#1D91D8" d="M640.597,193.776c0,3.742-10.393,9.561-10.393,9.561v2.078l-4.156,2.078l-9.146-18.288l-2.491,19.95
			c0,0-18.292,2.911-24.11,0c-5.822-2.909-8.73-1.662-17.044-4.571c-8.313-2.909,3.326-41.983,3.326-41.983l-8.313-60.273
			l18.162-9.082l0.958-0.48l2.497-0.459l3.829-0.707l12.796,8.649l1.029,5.405l0.634,3.325l3.324-3.742l2.51-8.255l17.86,9.919
			l-4.988,39.904C626.881,146.804,640.597,190.036,640.597,193.776z"/>
		<path fill="#FFB8B8" d="M579.492,206.663c0,0,19.122,15.379,9.977,18.289c-9.146,2.909-14.133-15.795-14.133-15.795
			L579.492,206.663z"/>
		<path fill="#1D91D8" d="M572.426,103.158l-4.157-0.831c0,0-6.235,3.325-6.65,9.976c-0.417,6.651-5.82,53.207-5.82,53.207
			l17.458,46.974l14.134-5.404l-13.718-44.063l10.392-38.243L572.426,103.158z"/>
		<circle fill="#2F2E41" cx="608.34" cy="114.328" r="1.515"/>
		<circle fill="#2F2E41" cx="608.34" cy="124.177" r="1.515"/>
		<circle fill="#2F2E41" cx="616.926" cy="189.079" r="1.515"/>
		<path fill="#2F2E41" d="M593.175,57.878l-2.919-1.169c0,0,6.105-6.721,14.6-6.137l-2.39-2.63c0,0,5.841-2.338,11.149,3.799
			c2.79,3.226,6.02,7.019,8.032,11.29h3.127l-1.305,2.874l4.568,2.874l-4.688-0.516c0.278,1.574,0.322,3.181,0.127,4.767
			c-0.201,1.586-1.012,3.033-2.259,4.034l0,0c0,0-3.621-7.496-3.621-8.665v2.922c0,0-2.92-2.63-2.92-4.384l-1.593,2.046h-10.618
			l1.593-2.63l-6.105,0.876l2.39-3.214l-9.453,13.274C590.89,77.291,585.478,62.262,593.175,57.878z"/>
		<polygon opacity="0.2" enable-background="new    " points="577.405,175.004 587.506,206.555 579.424,173.725 		"/>
		<g>
			<circle fill="#3F3D56" cx="687.105" cy="144.365" r="25.254"/>
			<circle opacity="0.1" enable-background="new    " cx="687.105" cy="144.365" r="21.718"/>
			<path fill="#FFFFFF" d="M686.921,142.523c3.605,0,6.527-3.549,6.527-7.928s-0.959-7.928-6.527-7.928
				c-5.566,0-6.527,3.549-6.527,7.928S683.316,142.523,686.921,142.523z"/>
			<path fill="#FFFFFF" d="M699.236,154.309c-0.121-7.627-1.117-9.8-8.739-11.176c0,0-1.074,1.367-3.575,1.367
				c-2.502,0-3.575-1.367-3.575-1.367c-7.539,1.36-8.596,3.501-8.734,10.928c-0.012,0.606-0.017,0.638-0.019,0.568
				c0,0.132,0.001,0.376,0.001,0.8c0,0,1.814,3.66,12.327,3.66s12.328-3.66,12.328-3.66c0-0.272,0-0.462,0-0.591
				C699.248,154.88,699.244,154.796,699.236,154.309L699.236,154.309z"/>
		</g>
	</g>
</g>
</svg>
