<?xml version="1.0" encoding="utf-8"?>
<!-- Generator: Adobe Illustrator 16.0.0, SVG Export Plug-In . SVG Version: 6.00 Build 0)  -->
<!DOCTYPE svg PUBLIC "-//W3C//DTD SVG 1.1//EN" "http://www.w3.org/Graphics/SVG/1.1/DTD/svg11.dtd">
<svg version="1.1" id="Warstwa_1" xmlns="http://www.w3.org/2000/svg" xmlns:xlink="http://www.w3.org/1999/xlink" x="0px" y="0px"
	 width="1200px" height="378.947px" viewBox="0 0 1200 378.947" enable-background="new 0 0 1200 378.947" xml:space="preserve">
<linearGradient id="SVGID_1_" gradientUnits="userSpaceOnUse" x1="205.2642" y1="-205.2622" x2="994.7378" y2="584.2114">
	<stop  offset="0" style="stop-color:#5FD32F"/>
	<stop  offset="1" style="stop-color:#3DA312"/>
</linearGradient>
<path fill="url(#SVGID_1_)" d="M0,0h1200v378.947H0V0z"/>
<g>
	<path fill="#FFFFFF" d="M324.632,84.605h3.493v-4.406c0-4.585,0.582-8.23,1.746-10.935c1.165-2.705,3.134-4.676,5.911-5.912
		c2.777-1.236,6.583-1.854,11.42-1.854c8.562,0,12.842,2.095,12.842,6.287c0,1.362-0.448,2.526-1.343,3.493
		c-0.896,0.967-1.953,1.451-3.17,1.451c-0.573,0-1.558-0.107-2.956-0.322c-1.397-0.216-2.579-0.323-3.547-0.323
		c-2.65,0-4.353,0.779-5.104,2.338c-0.752,1.558-1.128,3.789-1.128,6.69v3.493h3.601c5.588,0,8.383,1.684,8.383,5.051
		c0,2.401-0.745,3.923-2.229,4.568c-1.488,0.645-3.539,0.967-6.153,0.967h-3.601v38.851c0,2.902-0.69,5.114-2.069,6.636
		c-1.379,1.522-3.161,2.284-5.347,2.284c-2.078,0-3.807-0.761-5.185-2.284c-1.38-1.521-2.07-3.735-2.07-6.636V95.191h-4.03
		c-2.186,0-3.868-0.492-5.051-1.478c-1.183-0.985-1.774-2.266-1.774-3.843C317.27,86.361,319.724,84.605,324.632,84.605z"/>
	<path fill="#FFFFFF" d="M377.024,121.791v12.252c0,2.974-0.699,5.204-2.096,6.691c-1.397,1.485-3.171,2.229-5.32,2.229
		c-2.115,0-3.852-0.753-5.212-2.257c-1.362-1.504-2.043-3.726-2.043-6.664V93.203c0-6.591,2.382-9.887,7.146-9.887
		c2.436,0,4.191,0.771,5.266,2.311c1.075,1.541,1.667,3.815,1.773,6.825c1.755-3.009,3.556-5.284,5.401-6.825
		c1.844-1.54,4.307-2.311,7.388-2.311c3.081,0,6.073,0.771,8.974,2.311c2.902,1.541,4.353,3.582,4.353,6.126
		c0,1.792-0.617,3.27-1.854,4.433c-1.235,1.165-2.571,1.746-4.003,1.746c-0.538,0-1.836-0.331-3.896-0.994
		c-2.06-0.662-3.878-0.994-5.454-0.994c-2.15,0-3.905,0.564-5.265,1.693c-1.362,1.128-2.419,2.804-3.171,5.024
		c-0.752,2.222-1.271,4.863-1.559,7.925C377.166,113.649,377.024,117.382,377.024,121.791z"/>
	<path fill="#FFFFFF" d="M448.868,116.739h-28.694c0.035,3.332,0.707,6.269,2.015,8.813c1.308,2.544,3.044,4.46,5.212,5.75
		c2.167,1.29,4.559,1.935,7.174,1.935c1.754,0,3.358-0.206,4.809-0.617c1.451-0.412,2.856-1.057,4.219-1.935
		c1.361-0.877,2.614-1.819,3.761-2.82c1.146-1.004,2.632-2.365,4.46-4.085c0.752-0.644,1.827-0.966,3.224-0.966
		c1.505,0,2.723,0.412,3.654,1.235c0.932,0.825,1.397,1.987,1.397,3.493c0,1.326-0.52,2.875-1.558,4.648
		c-1.039,1.773-2.606,3.475-4.702,5.105c-2.095,1.63-4.729,2.982-7.899,4.056c-3.17,1.074-6.816,1.611-10.935,1.611
		c-9.422,0-16.748-2.687-21.979-8.06c-5.231-5.374-7.846-12.664-7.846-21.871c0-4.334,0.645-8.356,1.935-12.063
		c1.29-3.708,3.171-6.887,5.643-9.538c2.472-2.65,5.516-4.684,9.135-6.1c3.618-1.414,7.631-2.122,12.037-2.122
		c5.731,0,10.648,1.21,14.75,3.627c4.102,2.418,7.173,5.544,9.216,9.377c2.042,3.833,3.063,7.738,3.063,11.714
		c0,3.691-1.058,6.083-3.17,7.173C455.674,116.193,452.701,116.739,448.868,116.739z M420.174,108.41h26.598
		c-0.358-5.016-1.71-8.767-4.057-11.258c-2.346-2.49-5.436-3.734-9.269-3.734c-3.654,0-6.655,1.263-9,3.789
		C422.098,99.731,420.675,103.467,420.174,108.41z"/>
	<path fill="#FFFFFF" d="M487.183,68.861v88.502c0,2.436-0.548,4.272-1.639,5.507c-1.093,1.236-2.517,1.854-4.271,1.854
		c-1.755,0-3.206-0.628-4.353-1.88c-1.146-1.255-1.72-3.083-1.72-5.481V68.861c0-2.399,0.572-4.227,1.72-5.481
		c1.146-1.253,2.597-1.88,4.353-1.88s3.179,0.636,4.271,1.908C486.635,64.679,487.183,66.497,487.183,68.861z"/>
	<path fill="#206606" d="M561.928,130.065c0,3.799-1.46,6.816-4.379,9.054c-2.92,2.242-6.905,3.359-11.957,3.359
		c-3.368,0-6.734-0.358-10.102-1.075c-2.901-0.645-4.585-1.235-5.051-1.773c-0.287-0.501-0.43-2.956-0.43-7.363
		c0-1.897,0.43-2.881,1.29-2.954c0.859-0.107,1.593,0.358,2.204,1.396c2.686,4.694,7.02,7.041,13.003,7.041
		c5.051,0,7.577-1.756,7.577-5.267c0-1.541-0.574-2.83-1.72-3.869c-1.254-1.182-3.69-2.559-7.308-4.137
		c-5.23-2.329-8.724-4.37-10.479-6.126c-1.898-1.861-2.847-4.37-2.847-7.522c0-3.869,1.485-6.878,4.459-9.028
		c2.758-2.077,6.449-3.117,11.069-3.117c2.902,0,5.553,0.234,7.953,0.699c2.579,0.466,3.922,1.039,4.031,1.72
		c0.286,2.007,0.877,4.909,1.773,8.705c0.106,0.467-0.395,0.842-1.505,1.129c-1.183,0.25-1.971,0.054-2.364-0.592
		c-2.83-4.621-6.413-6.932-10.748-6.932c-4.909,0-7.361,1.577-7.361,4.729c0,1.756,0.662,3.153,1.988,4.191
		c1.181,0.896,3.958,2.293,8.329,4.191c4.585,1.97,7.701,3.743,9.351,5.32C560.854,123.886,561.928,126.626,561.928,130.065z"/>
	<path fill="#206606" d="M601.531,136.567c0,1.72-1.577,3.188-4.729,4.406c-2.794,1.075-5.625,1.612-8.49,1.612
		c-7.774,0-11.661-4.139-11.661-12.414v-19.451c0-2.472-0.197-3.984-0.592-4.541c-0.395-0.555-1.7-1.101-3.922-1.639
		c-0.572-0.143-0.859-0.698-0.859-1.667c0-1.039,0.215-1.666,0.645-1.88c3.868-1.898,7.236-5.301,10.103-10.21
		c0.394-0.68,1.164-0.895,2.31-0.645c0.788,0.251,1.201,0.717,1.236,1.397l0.215,6.717c0,0.502,0.089,0.859,0.27,1.075
		c0.25,0.322,0.823,0.483,1.719,0.483h11.983c0.68,0,0.68,0.842,0,2.525c-0.825,2.042-2.042,3.063-3.654,3.063h-8.114
		c-1.396,0-2.257,0.233-2.58,0.698c-0.25,0.323-0.375,1.201-0.375,2.633v17.572c0,4.441,0.394,7.252,1.182,8.436
		c1.039,1.505,3.457,2.257,7.254,2.257c1.254,0,2.776-0.205,4.567-0.617c1.791-0.412,2.741-0.618,2.849-0.618
		C601.316,135.762,601.531,136.03,601.531,136.567z"/>
	<path fill="#206606" d="M654.998,119.963c0,6.233-2.311,11.508-6.932,15.825c-4.621,4.317-10.354,6.476-17.196,6.476
		c-6.842,0-12.251-1.898-16.228-5.697c-3.833-3.725-5.749-8.65-5.749-14.776c0-6.341,2.418-11.678,7.255-16.013
		c4.692-4.191,10.298-6.287,16.818-6.287c6.986,0,12.432,1.88,16.336,5.642C653.099,108.786,654.998,113.729,654.998,119.963z
		 M645.541,123.241c0-5.624-1.362-10.19-4.084-13.702c-2.652-3.402-6.019-5.105-10.103-5.105c-3.798,0-6.897,1.335-9.297,4.003
		c-2.399,2.669-3.599,5.92-3.599,9.752c0,6.162,1.396,10.962,4.191,14.402c2.579,3.152,5.946,4.729,10.102,4.729
		c3.94,0,7.057-1.309,9.351-3.922C644.394,130.783,645.541,127.397,645.541,123.241z"/>
	<path fill="#206606" d="M702.017,134.687c0,1.326-1.846,2.937-5.534,4.835c-4.013,2.042-7.971,3.064-11.876,3.064
		c-6.09,0-11.07-1.722-14.938-5.161c-4.048-3.653-6.072-8.598-6.072-14.83c0-6.699,2.33-12.269,6.987-16.711
		c4.549-4.335,10.137-6.502,16.765-6.502c4.012,0,7.504,0.573,10.479,1.72c2.722,1.074,4.083,2.221,4.083,3.439
		c0,0.825-0.672,2.077-2.015,3.761c-1.343,1.685-2.445,2.526-3.304,2.526c-0.538,0-1.774-0.771-3.708-2.311
		c-3.62-2.866-6.449-4.299-8.491-4.299c-3.224,0-5.876,1.218-7.952,3.653c-2.186,2.651-3.278,6.305-3.278,10.962
		c0,5.624,1.576,10.119,4.729,13.487c2.866,3.044,6.322,4.566,10.371,4.566c4.011,0,7.791-1.109,11.339-3.332
		c0.321-0.214,0.752-0.322,1.289-0.322C701.641,133.236,702.017,133.72,702.017,134.687z"/>
	<path fill="#206606" d="M762.953,139.738c0,1.254-0.842,1.916-2.525,1.988c-2.509,0.036-5.787,0.214-9.834,0.538
		c-2.007,0.393-3.439,0.143-4.299-0.753c-5.66-6.09-10.46-12.466-14.401-19.131c-0.322-0.571-0.733-0.859-1.235-0.859
		c-0.609,0-1.666,0.539-3.171,1.612c-1.685,0.932-2.526,2.257-2.526,3.977c0,1.218,0.037,2.974,0.108,5.267
		c0.071,2.293,0.645,3.797,1.72,4.513c0.752,0.502,2.489,0.897,5.213,1.183c1.683,0.215,2.525,0.841,2.525,1.88
		c0,0.825-0.136,1.336-0.403,1.532c-0.27,0.196-0.977,0.242-2.122,0.134c-3.584-0.321-9.637-0.142-18.164,0.539
		c-2.149,0.178-3.313-0.09-3.492-0.806c-0.072-0.25-0.107-0.609-0.107-1.074c0-1.111,1.093-1.952,3.278-2.526
		c1.969-0.501,2.955-2.812,2.955-6.932V83.853c0-2.937-0.286-4.978-0.858-6.126c-0.789-1.468-2.438-2.614-4.944-3.438
		c-1.183-0.394-1.774-0.948-1.774-1.666c0-1.038,0.842-1.845,2.526-2.418c2.687-0.895,5.247-2.131,7.685-3.708
		c1.969-1.29,3.188-1.935,3.653-1.935c1.468,0,2.202,0.933,2.202,2.794c0-0.25-0.017,1.522-0.053,5.32
		c-0.036,2.616-0.053,6.126-0.053,10.533l0.105,33.638c0,0.932,0.252,1.397,0.754,1.397c0.536,0,1.36-0.465,2.472-1.397
		c2.974-2.329,6.627-5.374,10.961-9.135c0.859-0.895,1.29-1.612,1.29-2.15c0-0.967-1.451-1.647-4.353-2.042
		c-1.254-0.144-1.847-0.842-1.773-2.096c0.107-1.254,0.734-1.791,1.881-1.612c2.578,0.358,6.341,0.556,11.284,0.591
		c3.44,0.036,6.86,0.054,10.265,0.054c1.11,0.037,1.665,0.699,1.665,1.989c0,1.218-0.878,1.88-2.633,1.988
		c-2.759,0.107-5.355,0.734-7.792,1.88c-3.403,1.541-7.038,4.245-10.906,8.114c-0.287,0.214-0.432,0.483-0.432,0.806
		c0,0.502,0.609,1.701,1.827,3.6c4.478,6.807,8.705,11.947,12.683,15.422c2.541,2.185,4.923,3.277,7.145,3.277
		c1.647,0,2.669,0.117,3.063,0.35C762.756,138.118,762.953,138.735,762.953,139.738z"/>
	<path fill="#FFFFFF" d="M812.658,68.861v88.502c0,2.436-0.547,4.272-1.639,5.507c-1.094,1.236-2.517,1.854-4.272,1.854
		c-1.755,0-3.206-0.628-4.352-1.88c-1.146-1.255-1.72-3.083-1.72-5.481V68.861c0-2.399,0.573-4.227,1.72-5.481
		c1.146-1.253,2.597-1.88,4.352-1.88c1.756,0,3.179,0.636,4.272,1.908C812.111,64.679,812.658,66.497,812.658,68.861z"/>
	<path fill="#FFFFFF" d="M870.64,116.739h-28.696c0.036,3.332,0.707,6.269,2.016,8.813c1.309,2.544,3.045,4.46,5.213,5.75
		c2.167,1.29,4.558,1.935,7.174,1.935c1.754,0,3.358-0.206,4.81-0.617c1.449-0.412,2.856-1.057,4.217-1.935
		c1.362-0.877,2.615-1.819,3.763-2.82c1.146-1.004,2.633-2.365,4.461-4.085c0.752-0.644,1.825-0.966,3.224-0.966
		c1.505,0,2.721,0.412,3.653,1.235c0.932,0.825,1.397,1.987,1.397,3.493c0,1.326-0.52,2.875-1.558,4.648
		c-1.039,1.773-2.606,3.475-4.702,5.105c-2.096,1.63-4.729,2.982-7.899,4.056c-3.171,1.074-6.815,1.611-10.936,1.611
		c-9.422,0-16.747-2.687-21.977-8.06c-5.231-5.374-7.846-12.664-7.846-21.871c0-4.334,0.646-8.356,1.936-12.063
		c1.289-3.708,3.17-6.887,5.641-9.538c2.473-2.65,5.517-4.684,9.135-6.1c3.619-1.414,7.631-2.122,12.038-2.122
		c5.729,0,10.648,1.21,14.749,3.627c4.103,2.418,7.174,5.544,9.217,9.377c2.041,3.833,3.063,7.738,3.063,11.714
		c0,3.691-1.058,6.083-3.171,7.173C877.443,116.193,874.472,116.739,870.64,116.739z M841.943,108.41h26.601
		c-0.36-5.016-1.712-8.767-4.059-11.258c-2.347-2.49-5.436-3.734-9.269-3.734c-3.654,0-6.655,1.263-9.002,3.789
		C843.869,99.731,842.446,103.467,841.943,108.41z"/>
</g>
<path color-rendering="auto" image-rendering="auto" shape-rendering="auto" fill="#FFFFFF" d="M549.632,198.672v78.172h100.736
	v-78.172H549.632L549.632,198.672z M559.694,209.015h80.61v57.487h-80.61V209.015z M579.449,216.201
	c-4.228,0-7.655,3.428-7.655,7.656l0,0c0,4.229,3.428,7.656,7.655,7.656l0,0c4.229,0,7.656-3.428,7.657-7.656l0,0
	C587.105,219.628,583.678,216.201,579.449,216.201C579.45,216.201,579.45,216.201,579.449,216.201z M610.007,224.73l-12.223,17.326
	l-6.581-6.38l-19.14,20.013h58.83l-20.886-30.96V224.73z"/>
</svg>
