<?xml version="1.0" encoding="utf-8"?>
<!-- Generator: Adobe Illustrator 16.0.0, SVG Export Plug-In . SVG Version: 6.00 Build 0)  -->
<!DOCTYPE svg PUBLIC "-//W3C//DTD SVG 1.1//EN" "http://www.w3.org/Graphics/SVG/1.1/DTD/svg11.dtd">
<svg version="1.1" id="Warstwa_1" xmlns="http://www.w3.org/2000/svg" xmlns:xlink="http://www.w3.org/1999/xlink" x="0px" y="0px"
	 width="1200px" height="378.947px" viewBox="0 0 1200 378.947" enable-background="new 0 0 1200 378.947" xml:space="preserve">
<linearGradient id="SVGID_1_" gradientUnits="userSpaceOnUse" x1="-226.0439" y1="851.6494" x2="838.0442" y2="237.2979" gradientTransform="matrix(1 0 0 -1 294 733.9473)">
	<stop  offset="0.0054" style="stop-color:#54E4FF"/>
	<stop  offset="0.6022" style="stop-color:#006DFF"/>
</linearGradient>
<path fill="url(#SVGID_1_)" d="M0,0h1200v378.947H0V0z"/>
<g>
	<g>
		<path fill="#3A3D36" d="M385.588,128.616c1.158-24.792,16.932-42.58,37.492-42.58c20.56,0,34.629,16.885,36.96,42.58
			c0.288,3.176,0.357,6.274-0.087,9.275h13.879c0.004-0.169,0.012-0.336,0.014-0.506c0.222-15.821-4.125-30.334-11.504-41.567
			c-9.119-13.879-22.867-22.749-38.364-22.87c-28.037-0.219-51.167,28.273-51.663,63.641c-0.007,0.435-0.008,0.869-0.008,1.302
			h13.943C385.712,134.907,385.438,131.813,385.588,128.616 M383.229,134.546c0,1.482-1.35,2.696-3.001,2.696h-2.111
			c-1.649,0-3-1.213-3-2.696v-7.823c0-1.483,1.351-2.696,3-2.696h2.111c1.651,0,3.001,1.213,3.001,2.696V134.546z M381.594,118.482
			l-1.983-0.648c-1.552-0.506-2.359-2.061-1.795-3.454l5.952-14.708c0.563-1.394,2.294-2.119,3.845-1.612l1.984,0.647
			c1.552,0.507,2.359,2.062,1.795,3.455l-5.952,14.708C384.876,118.264,383.145,118.989,381.594,118.482"/>
		<path fill="#FACB03" d="M420.309,210.448c-1.607-0.498-2.771-1.871-2.771-3.479v-10.119c-5.914-2.012-10.12-7.145-10.12-13.161
			c0-6.922,5.563-12.672,12.892-13.848v-31.95H386.25h-13.943H358.5v99.58h61.809V210.448z M363.912,158.339
			c0-1.483,1.351-2.696,3.001-2.696h2.111c1.65,0,3,1.213,3,2.696v18.012c0,1.483-1.35,2.695-3,2.695h-2.111
			c-1.65,0-3.001-1.212-3.001-2.695V158.339z M363.631,191.138c0-1.483,1.351-2.695,3-2.695h2.674c1.65,0,3.001,1.212,3.001,2.695
			v39.029c0,1.483-1.351,2.695-3.001,2.695h-2.674c-1.649,0-3-1.212-3-2.695V191.138z"/>
		<path fill="#E7B122" d="M459.953,137.892h-39.645v31.95c0.899-0.145,1.824-0.224,2.771-0.224c8.65,0,15.663,6.299,15.663,14.07
			c0,6.018-4.206,11.15-10.12,13.162v10.119c0,2.025-1.846,3.683-4.1,3.683h-2.886c-0.465,0-0.91-0.074-1.328-0.204v27.023h65.664
			v-99.58h-12.141H459.953z"/>
		<path fill="#555551" d="M421.637,179.046h2.886c2.255,0,4.1,1.658,4.1,3.684v14.121c5.914-2.012,10.12-7.145,10.12-13.161
			c0-7.772-7.013-14.071-15.663-14.071c-0.945,0-1.871,0.079-2.771,0.224c-7.328,1.176-12.892,6.926-12.892,13.848
			c0,6.017,4.206,11.149,10.12,13.161v-14.121C417.537,180.704,419.382,179.046,421.637,179.046"/>
		<path fill="#555551" d="M424.522,210.652c2.254,0,4.1-1.657,4.1-3.683v-10.119v-14.121c0-2.025-1.846-3.684-4.1-3.684h-2.886
			c-2.255,0-4.099,1.658-4.099,3.684v14.121v10.119c0,1.607,1.163,2.98,2.771,3.479c0.418,0.131,0.863,0.204,1.328,0.204H424.522z"
			/>
		<path fill="#F4F4F4" d="M366.631,232.862h2.674c1.65,0,3.001-1.212,3.001-2.695v-39.029c0-1.483-1.351-2.695-3.001-2.695h-2.674
			c-1.649,0-3,1.212-3,2.695v39.029C363.631,231.65,364.981,232.862,366.631,232.862"/>
		<path fill="#F4F4F4" d="M366.913,179.046h2.111c1.65,0,3-1.212,3-2.695v-18.012c0-1.483-1.35-2.696-3-2.696h-2.111
			c-1.65,0-3.001,1.213-3.001,2.696v18.012C363.912,177.834,365.263,179.046,366.913,179.046"/>
		<path fill="#A59D98" d="M380.229,124.027h-2.11c-1.65,0-3.001,1.213-3.001,2.696v7.823c0,1.482,1.351,2.696,3.001,2.696h2.11
			c1.651,0,3.001-1.213,3.001-2.696v-7.823C383.229,125.241,381.88,124.027,380.229,124.027"/>
		<path fill="#A59D98" d="M389.598,98.708l-1.985-0.648c-1.551-0.506-3.281,0.219-3.845,1.612l-5.952,14.708
			c-0.564,1.394,0.243,2.948,1.794,3.455l1.984,0.648c1.552,0.506,3.282-0.219,3.846-1.613l5.953-14.708
			C391.956,100.769,391.147,99.214,389.598,98.708"/>
	</g>
	<g>
		<path fill="#FFFFFF" stroke="#FFFFFF" stroke-width="7" stroke-miterlimit="10" d="M776.502,114.353
			c0-1.389,1.105-2.494,2.494-2.494s2.494,1.105,2.494,2.494v75.799c0,1.389-1.105,2.494-2.494,2.494
			c-0.709,0-1.332-0.283-1.786-0.736l-23.442-23.471c-0.992-0.964-0.992-2.551,0-3.516c0.964-0.992,2.551-0.992,3.516,0
			l19.219,19.191V114.353z"/>
		<path fill="#FFFFFF" stroke="#FFFFFF" stroke-width="7" stroke-miterlimit="10" d="M776.502,114.353
			c0-1.389,1.105-2.494,2.494-2.494s2.494,1.105,2.494,2.494v69.762l19.219-19.191c0.965-0.992,2.553-0.992,3.516,0
			c0.992,0.965,0.992,2.552,0,3.516l-23.443,23.471c-0.453,0.453-1.076,0.736-1.785,0.736c-1.389,0-2.494-1.105-2.494-2.494V114.353
			z M836.512,178.474c0-1.389,1.105-2.494,2.494-2.494s2.494,1.105,2.494,2.494v43.369c0,1.389-1.105,2.494-2.494,2.494h-120.02
			c-1.389,0-2.494-1.105-2.494-2.494v-43.369c0-1.389,1.105-2.494,2.494-2.494s2.494,1.105,2.494,2.494v40.875h115.031V178.474z"/>
	</g>
	<g>
		<path fill="#FFFFFF" stroke="#FFFFFF" stroke-width="7" stroke-miterlimit="10" d="M575.125,173.319h2.494H616h2.494
			c1.389,0,2.494-1.105,2.494-2.494s-1.105-2.494-2.494-2.494h-43.369c-1.389,0-2.494,1.105-2.494,2.494
			S573.736,173.319,575.125,173.319z"/>
		<path fill="#FFFFFF" stroke="#FFFFFF" stroke-width="7" stroke-miterlimit="10" d="M618.494,196.665h-43.369
			c-1.389,0-2.494,1.105-2.494,2.494s1.105,2.494,2.494,2.494h2.494H616h2.494c1.389,0,2.494-1.105,2.494-2.494
			S619.883,196.665,618.494,196.665z"/>
	</g>
</g>
</svg>
